<svg width="320" height="320" xmlns="http://www.w3.org/2000/svg">
  <!-- body -->
  <polygon style="fill:black" points="20, 80 40, 80 40, 40 60, 40 60, 20 80, 20 80, 40 100, 40 100, 60 200, 60 200, 40 220, 40 220, 20 240, 20 240, 40 260, 40 260, 80 280, 80 280, 180 260, 180 260, 200 220, 200 220, 220 200, 220 200, 240 240, 240 240, 260 260, 260 260, 240 280, 240 280, 220 300, 220 300, 260 280, 260 280, 280 240, 280 240, 300 80, 300 80, 280 100, 280 100, 220 80, 220 80, 200 40, 200 40, 180 20, 180"/>
  <!-- rigth eye -->
  <polygon style="fill:white" points="40, 100 60, 100 60, 80 120, 80 120, 160 40, 160"/>
  <polygon style="fill:black" points="60, 100 80, 100 80, 140 60, 140"/>
  <!-- left eye -->
  <polygon style="fill:white" points="160, 100 180, 100 180, 80 240, 80 240, 160 160, 160"/>
  <polygon style="fill:green" points="180, 100 200, 100 200, 140 180, 140"/>
  <!-- ring -->
  <polygon style="fill:orange" points="100, 220 200, 220 200, 240 100, 240"/>
  <polygon style="fill:yellow" points="120, 220, 140, 220 140, 240 120, 240"/>
</svg>